<svg id="그룹_2977" data-name="그룹 2977" xmlns="http://www.w3.org/2000/svg" width="140" height="140" viewBox="0 0 140 140">
  <path id="Icon_metro-files-empty" data-name="Icon metro-files-empty" d="M19.854,8.35a16.3,16.3,0,0,0-1.568-1.793,16.311,16.311,0,0,0-1.793-1.568,2.869,2.869,0,0,0-1.635-.759H8.239A1.44,1.44,0,0,0,6.8,5.669V18.905a1.44,1.44,0,0,0,1.439,1.439H19.174a1.44,1.44,0,0,0,1.439-1.439V9.985a2.868,2.868,0,0,0-.759-1.635Zm-2.382-.979a15.7,15.7,0,0,1,1.305,1.463H16.009V6.065a15.686,15.686,0,0,1,1.463,1.305Zm1.99,11.535a.292.292,0,0,1-.288.288H8.239a.292.292,0,0,1-.288-.288V5.669a.292.292,0,0,1,.288-.288h6.618V9.409a.575.575,0,0,0,.575.575h4.028ZM14.191,2.687a2.868,2.868,0,0,0-1.635-.759H5.937A1.44,1.44,0,0,0,4.5,3.367V16.6a1.441,1.441,0,0,0,1.151,1.41V3.367a.292.292,0,0,1,.288-.288h8.756c-.173-.142-.342-.274-.5-.392Z" transform="translate(56.413 56.332)" fill="#9e9e9e"/>
  <rect id="사각형_421" data-name="사각형 421" width="140" height="140" fill="none"/>
</svg>
